<?xml version="1.0" encoding="utf-8"?>
<!-- Generator: Adobe Illustrator 15.0.0, SVG Export Plug-In . SVG Version: 6.00 Build 0)  -->
<!DOCTYPE svg PUBLIC "-//W3C//DTD SVG 1.1//EN" "http://www.w3.org/Graphics/SVG/1.1/DTD/svg11.dtd">
<svg version="1.1" id="Ebene_1" xmlns="http://www.w3.org/2000/svg" xmlns:xlink="http://www.w3.org/1999/xlink" x="0px" y="0px"
	 width="43.236px" height="43.236px" viewBox="0 0 43.236 43.236" enable-background="new 0 0 43.236 43.236" xml:space="preserve">
<circle fill="none" stroke="#000000" stroke-width="2" stroke-miterlimit="10" cx="-99.724" cy="-59.917" r="20.506"/>
<path d="M-84.795-47.27c-0.254-1.66-1.354-3.039-2.846-3.688c1.062-0.646,1.771-1.816,1.771-3.151c0-2.037-1.651-3.688-3.688-3.688
	c-2.037,0-3.688,1.65-3.688,3.688c0,1.335,0.709,2.504,1.771,3.151c-0.725,0.315-1.356,0.802-1.844,1.411
	c-0.883-1.249-2.122-2.227-3.571-2.786c1.623-0.955,2.712-2.718,2.712-4.737c0-3.033-2.459-5.492-5.493-5.492
	s-5.493,2.459-5.493,5.492c0,2.011,1.08,3.768,2.691,4.725c-1.463,0.558-2.716,1.543-3.604,2.803
	c-0.488-0.611-1.122-1.101-1.848-1.417c1.062-0.646,1.771-1.816,1.771-3.151c0-2.037-1.651-3.688-3.688-3.688
	s-3.688,1.65-3.688,3.688c0,1.335,0.709,2.504,1.771,3.151c-1.707,0.742-2.902,2.443-2.902,4.423c0,2.662,3.049,3.786,4.82,4.819
	c0.881,0.514,1.939,1.132,2.718,0.591c0.613,1.14,3.982,1.75,7.429,1.75c3.443,0,6.889,0.215,7.925-2.88
	c0.778,0.538,1.483,1.246,2.213,0.539c0.657-0.635,3.756-2.001,4.603-3.876C-84.825-46.146-84.76-46.703-84.795-47.27z"/>
<g>
	<path fill="none" stroke="#000000" stroke-miterlimit="10" d="M-175.532,31.73l3.163,9.606c0,0-1.171,0.493-0.569,2.756
		c0.603,2.262-3.995,4.789-3.995,4.789s-7.823-0.946-9.268,4.435c-0.085,0.319-0.172,0.612-0.229,0.889
		c-0.2,0.967-0.054,1.758,0.344,2.376c0.517,0.804,1.473,1.257,2.619,1.551c1.211,0.309,4.832,1.191,7.491,0.681
		c1.868-0.358,10.118-5.642,10.118-5.642s0.392,1.016,1.381,0.752c0.99-0.262,5.181-3.407,5.181-3.407s-4.905-10.233-5.391-10.467
		c-0.486-0.233-1.519-7.864-1.519-7.864"/>
	<path fill="none" stroke="#000000" stroke-miterlimit="10" d="M-186.516,54.972c0,0,5.991,2.501,10.538,1.753
		c3.931-0.645,9.155-5.076,9.155-5.076l6.284-3.699"/>
	<path fill="none" stroke="#000000" stroke-miterlimit="10" d="M-172.369,41.336c0,0,3.118,1.801,7.683-1.288"/>
	<path fill="none" stroke="#000000" stroke-miterlimit="10" d="M-172.806,45.034c0,0,1.119,0.734,2.295,0.859"/>
	<path fill="none" stroke="#000000" stroke-miterlimit="10" d="M-173.383,46.251c0,0,0.302,0.73,1.827,1.111"/>
</g>
<circle fill="none" stroke="#000000" stroke-miterlimit="10" cx="-172.206" cy="46.505" r="20.506"/>
<path fill="none" stroke="#000000" stroke-miterlimit="10" d="M33.222,20.039"/>
<g>
	<g>
		<path d="M10.377,15.445h22.334c0,0-0.287,15.542-4.321,15.624c-2.448,0.05-12.077,0.006-13.682,0
			C10.957,31.055,10.377,15.445,10.377,15.445z"/>
		<line fill="none" stroke="#000000" stroke-miterlimit="10" x1="10.57" y1="32.872" x2="32.992" y2="32.872"/>
		<path fill="none" stroke="#000000" stroke-miterlimit="10" d="M22.554,5.219c0,0-1.075,3.057-3.091,4.209
			c-2.017,1.152-1.829,2.383-2.139,3.424"/>
		<path fill="none" stroke="#000000" stroke-miterlimit="10" d="M26.73,5.219c0,0-1.075,3.057-3.092,4.209s-1.829,2.383-2.139,3.424
			"/>
	</g>
	<path fill="none" stroke="#000000" stroke-miterlimit="10" d="M32.711,17.654c0,0,3.456-1.92,3.744,1.536
		c0.289,3.457-5.207,7.978-5.207,7.978"/>
</g>
<circle fill="none" stroke="#000000" stroke-miterlimit="10" cx="21.619" cy="21.618" r="20.506"/>
<path d="M-136.613,46.505"/>
<path d="M-219.052,80.621c-1.472,0.376-12.603,3.63-15.693,6.111c-3.089,2.48-8.179,11.782-9.229,13.014
	c-1.498,1.757,1.013,5.024,2.954,4.063c1.941-0.961,13.896-4.328,15.775-5.889c1.879-1.562,8.623-13.081,8.94-13.47
	C-215.014,82.871-217.085,80.118-219.052,80.621z M-228.933,95.57c-2.115,0.399-4.151-0.992-4.55-3.106
	c-0.399-2.115,0.992-4.152,3.106-4.55c2.115-0.399,4.152,0.992,4.55,3.106C-225.427,93.134-226.818,95.171-228.933,95.57z"/>
<circle fill="none" stroke="#000000" stroke-miterlimit="10" cx="-230.149" cy="92.266" r="20.506"/>
</svg>
